<?xml version="1.0" encoding="UTF-8" standalone="no"?>
<!-- Created with Inkscape (http://www.inkscape.org/) -->

<svg
   xmlns:dc="http://purl.org/dc/elements/1.1/"
   xmlns:cc="http://creativecommons.org/ns#"
   xmlns:rdf="http://www.w3.org/1999/02/22-rdf-syntax-ns#"
   xmlns:svg="http://www.w3.org/2000/svg"
   xmlns="http://www.w3.org/2000/svg"
   xmlns:sodipodi="http://sodipodi.sourceforge.net/DTD/sodipodi-0.dtd"
   xmlns:inkscape="http://www.inkscape.org/namespaces/inkscape"
   width="704.28235"
   height="269.43964"
   id="svg3510"
   version="1.1"
   inkscape:version="0.48.2 r9819"
   sodipodi:docname="Neues Dokument 5">
  <title
     id="title4278">OCHP direct Basic Overview</title>
  <defs
     id="defs3512" />
  <sodipodi:namedview
     id="base"
     pagecolor="#ffffff"
     bordercolor="#666666"
     borderopacity="1.0"
     inkscape:pageopacity="0.0"
     inkscape:pageshadow="2"
     inkscape:zoom="0.35"
     inkscape:cx="430.70485"
     inkscape:cy="-2.4276045"
     inkscape:document-units="px"
     inkscape:current-layer="layer1"
     showgrid="false"
     fit-margin-top="0"
     fit-margin-left="0"
     fit-margin-right="0"
     fit-margin-bottom="0"
     inkscape:window-width="1158"
     inkscape:window-height="779"
     inkscape:window-x="75"
     inkscape:window-y="75"
     inkscape:window-maximized="0" />
  <metadata
     id="metadata3515">
    <rdf:RDF>
      <cc:Work
         rdf:about="">
        <dc:format>image/svg+xml</dc:format>
        <dc:type
           rdf:resource="http://purl.org/dc/dcmitype/StillImage" />
        <cc:license
           rdf:resource="" />
        <dc:title>OCHP direct Basic Overview</dc:title>
        <dc:date>2015-02-23</dc:date>
        <dc:creator>
          <cc:Agent>
            <dc:title>Simon Schilling</dc:title>
          </cc:Agent>
        </dc:creator>
        <dc:publisher>
          <cc:Agent>
            <dc:title>smartlab Innovationsgesellschaft mbH</dc:title>
          </cc:Agent>
        </dc:publisher>
        <dc:language>en</dc:language>
      </cc:Work>
    </rdf:RDF>
  </metadata>
  <g
     inkscape:label="Ebene 1"
     inkscape:groupmode="layer"
     id="layer1"
     transform="translate(80.704847,-260.49494)">
    <g
       transform="translate(-215.79754,-575.53421)"
       id="g3403">
      <path
         id="path3202"
         d="m 244.78811,836.55788 0,210.66472 531.50742,0 0,-210.66472 -531.50742,0 z"
         style="fill:#ffffff;fill-opacity:1;fill-rule:evenodd;stroke:none"
         inkscape:connector-curvature="0" />
      <path
         id="path3204"
         d="m 244.78811,836.55788 531.50742,0 0,210.66472 -531.50742,0 z"
         style="fill:none;stroke:#cdf0ff;stroke-width:1.04981709px;stroke-linecap:round;stroke-linejoin:round;stroke-opacity:1;stroke-dasharray:none"
         inkscape:connector-curvature="0" />
      <path
         id="path3206"
         d="m 140.70624,880.64003 0,-1.04958 0,-1.04957 0.14997,-1.04958 0.14998,-1.04957 0.29994,-1.04958 0.29995,-1.04957 0.29995,-1.04958 0.44992,-0.89963 0.44992,-0.89964 0.44992,-0.89963 0.44993,-0.89964 0.59989,-0.89963 0.5999,-0.89964 0.59989,-0.7497 1.34977,-1.49939 1.49974,-1.34945 0.89984,-0.59976 0.74987,-0.59976 0.89984,-0.59975 0.89985,-0.59976 0.89984,-0.44982 0.89984,-0.44982 1.04982,-0.29988 0.89984,-0.29987 1.04982,-0.29988 1.04982,-0.29988 1.04981,-0.14994 1.04982,-0.14994 1.04982,0 1.04982,-0.14994 1.19979,0.14994 1.04981,0 1.04982,0.14994 1.04982,0.14994 1.04982,0.29988 0.89984,0.29988 1.04982,0.29987 0.89984,0.29988 1.04982,0.44982 0.89984,0.44982 0.89984,0.59976 0.89985,0.59975 0.74987,0.59976 0.74986,0.59976 1.64972,1.34945 1.34976,1.49939 0.5999,0.7497 0.59989,0.89964 0.5999,0.89963 0.44992,0.89964 0.44992,0.89963 0.44992,0.89964 0.29995,0.89963 0.44992,1.04958 0.29995,1.04957 0.14997,1.04958 0.14998,1.04957 0.14997,1.04958 0.14998,1.04957 0,1.04958 0,1.04957 -0.14998,1.19952 -0.14997,1.04957 -0.14998,1.04958 -0.14997,1.04957 -0.29995,0.89964 -0.44992,1.04958 -0.29995,0.89963 -0.44992,1.04958 -0.44992,0.89963 -0.44992,0.89964 -0.5999,0.74969 -0.59989,0.89964 -0.5999,0.7497 -1.34976,1.49939 -1.64972,1.34945 -0.74986,0.7497 -0.74987,0.59976 -0.89985,0.44981 -0.89984,0.59976 -0.89984,0.44982 -1.04982,0.44982 -0.89984,0.29987 -1.04982,0.29988 -0.89984,0.29988 -1.04982,0.29988 -1.04982,0.14994 -1.04982,0.14994 -1.04981,0.14994 -1.19979,0 -1.04982,0 -1.04982,-0.14994 -1.04982,-0.14994 -1.04981,-0.14994 -1.04982,-0.29988 -1.04982,-0.29988 -0.89984,-0.29988 -1.04982,-0.29987 -0.89984,-0.44982 -0.89984,-0.44982 -0.89985,-0.59976 -0.89984,-0.44981 -0.74987,-0.59976 -0.89984,-0.7497 -1.49974,-1.34945 -1.34977,-1.49939 -0.59989,-0.7497 -0.5999,-0.89964 -0.59989,-0.74969 -0.44993,-0.89964 -0.44992,-0.89963 -0.44992,-1.04958 -0.44992,-0.89963 -0.29995,-1.04958 -0.29995,-0.89964 -0.29994,-1.04957 -0.14998,-1.04958 -0.14997,-1.04957 0,-1.19952 0,-1.04957 z"
         style="fill:#5dcdff;fill-opacity:1;fill-rule:evenodd;stroke:none"
         inkscape:connector-curvature="0" />
      <path
         id="path3208"
         d="m 152.85412,874.34258 0,-0.44982 0.14998,-0.44982 0.29994,-0.44981 0.14998,-0.29988 0.44992,-0.14994 0.29995,-0.29988 0.44992,-0.14994 0.44992,0 0.44992,0 0.44992,0.14994 0.29995,0.29988 0.29995,0.14994 0.29995,0.29988 0.14997,0.44981 0.14998,0.44982 0.14997,0.44982 -0.14997,0.44982 -0.14998,0.29988 -0.14997,0.44981 -0.29995,0.29988 -0.29995,0.29988 -0.29995,0.14994 -0.44992,0.14994 -0.44992,0 -0.44992,0 -0.44992,-0.14994 -0.29995,-0.14994 -0.44992,-0.29988 -0.14998,-0.29988 -0.29994,-0.44981 -0.14998,-0.29988 0,-0.44982 0,0 z m 13.64763,0 0,-0.44982 0.14997,-0.44982 0.29995,-0.44981 0.14997,-0.29988 0.29995,-0.14994 0.44992,-0.29988 0.44992,-0.14994 0.44992,0 0.44993,0 0.29994,0.14994 0.44992,0.29988 0.29995,0.14994 0.29995,0.29988 0.14997,0.44981 0.14998,0.44982 0,0.44982 0,0.44982 -0.14998,0.29988 -0.14997,0.44981 -0.29995,0.29988 -0.29995,0.29988 -0.44992,0.14994 -0.29994,0.14994 -0.44993,0 -0.44992,0 -0.44992,-0.14994 -0.44992,-0.14994 -0.29995,-0.29988 -0.14997,-0.29988 -0.29995,-0.44981 -0.14997,-0.29988 0,-0.44982 0,0 z"
         style="fill:#4ba5cd;fill-opacity:1;fill-rule:evenodd;stroke:none"
         inkscape:connector-curvature="0" />
      <path
         id="path3210"
         d="m 152.85412,874.34258 0,-0.44982 0.14998,-0.44982 0.29994,-0.44981 0.14998,-0.29988 0.44992,-0.14994 0.29995,-0.29988 0.44992,-0.14994 0.44992,0 0.44992,0 0.44992,0.14994 0.29995,0.29988 0.29995,0.14994 0.29995,0.29988 0.14997,0.44981 0.14998,0.44982 0.14997,0.44982 -0.14997,0.44982 -0.14998,0.29988 -0.14997,0.44981 -0.29995,0.29988 -0.29995,0.29988 -0.29995,0.14994 -0.44992,0.14994 -0.44992,0 -0.44992,0 -0.44992,-0.14994 -0.29995,-0.14994 -0.44992,-0.29988 -0.14998,-0.29988 -0.29994,-0.44981 -0.14998,-0.29988 0,-0.44982 0,0"
         style="fill:none;stroke:#4296bc;stroke-width:1.04981709px;stroke-linecap:round;stroke-linejoin:round;stroke-opacity:1;stroke-dasharray:none"
         inkscape:connector-curvature="0" />
      <path
         id="path3212"
         d="m 166.50175,874.34258 0,-0.44982 0.14997,-0.44982 0.29995,-0.44981 0.14997,-0.29988 0.29995,-0.14994 0.44992,-0.29988 0.44992,-0.14994 0.44992,0 0.44993,0 0.29994,0.14994 0.44992,0.29988 0.29995,0.14994 0.29995,0.29988 0.14997,0.44981 0.14998,0.44982 0,0.44982 0,0.44982 -0.14998,0.29988 -0.14997,0.44981 -0.29995,0.29988 -0.29995,0.29988 -0.44992,0.14994 -0.29994,0.14994 -0.44993,0 -0.44992,0 -0.44992,-0.14994 -0.44992,-0.14994 -0.29995,-0.29988 -0.14997,-0.29988 -0.29995,-0.44981 -0.14997,-0.29988 0,-0.44982 0,0"
         style="fill:none;stroke:#4296bc;stroke-width:1.04981709px;stroke-linecap:round;stroke-linejoin:round;stroke-opacity:1;stroke-dasharray:none"
         inkscape:connector-curvature="0" />
      <path
         id="path3214"
         d="m 150.30457,889.93627 1.49974,0.89963 1.49973,0.89964 1.34977,0.59975 1.49974,0.59976 1.34976,0.44982 1.49974,0.29988 1.49974,0.14994 1.34977,0 1.49973,0 1.34977,-0.14994 1.49974,-0.29988 1.49974,-0.44982 1.34976,-0.59976 1.49974,-0.59975 1.34977,-0.89964 1.49973,-0.89963"
         style="fill:none;stroke:#4296bc;stroke-width:1.04981709px;stroke-linecap:round;stroke-linejoin:round;stroke-opacity:1;stroke-dasharray:none"
         inkscape:connector-curvature="0" />
      <path
         id="path3216"
         d="m 140.70624,880.64003 0,-1.04958 0,-1.04957 0.14997,-1.04958 0.14998,-1.04957 0.29994,-1.04958 0.29995,-1.04957 0.29995,-1.04958 0.44992,-0.89963 0.44992,-0.89964 0.44992,-0.89963 0.44993,-0.89964 0.59989,-0.89963 0.5999,-0.89964 0.59989,-0.7497 1.34977,-1.49939 1.49974,-1.34945 0.89984,-0.59976 0.74987,-0.59976 0.89984,-0.59975 0.89985,-0.59976 0.89984,-0.44982 0.89984,-0.44982 1.04982,-0.29988 0.89984,-0.29987 1.04982,-0.29988 1.04982,-0.29988 1.04981,-0.14994 1.04982,-0.14994 1.04982,0 1.04982,-0.14994 1.19979,0.14994 1.04981,0 1.04982,0.14994 1.04982,0.14994 1.04982,0.29988 0.89984,0.29988 1.04982,0.29987 0.89984,0.29988 1.04982,0.44982 0.89984,0.44982 0.89984,0.59976 0.89985,0.59975 0.74987,0.59976 0.74986,0.59976 1.64972,1.34945 1.34976,1.49939 0.5999,0.7497 0.59989,0.89964 0.5999,0.89963 0.44992,0.89964 0.44992,0.89963 0.44992,0.89964 0.29995,0.89963 0.44992,1.04958 0.29995,1.04957 0.14997,1.04958 0.14998,1.04957 0.14997,1.04958 0.14998,1.04957 0,1.04958 0,1.04957 -0.14998,1.19952 -0.14997,1.04957 -0.14998,1.04958 -0.14997,1.04957 -0.29995,0.89964 -0.44992,1.04958 -0.29995,0.89963 -0.44992,1.04958 -0.44992,0.89963 -0.44992,0.89964 -0.5999,0.74969 -0.59989,0.89964 -0.5999,0.7497 -1.34976,1.49939 -1.64972,1.34945 -0.74986,0.7497 -0.74987,0.59976 -0.89985,0.44981 -0.89984,0.59976 -0.89984,0.44982 -1.04982,0.44982 -0.89984,0.29987 -1.04982,0.29988 -0.89984,0.29988 -1.04982,0.29988 -1.04982,0.14994 -1.04982,0.14994 -1.04981,0.14994 -1.19979,0 -1.04982,0 -1.04982,-0.14994 -1.04982,-0.14994 -1.04981,-0.14994 -1.04982,-0.29988 -1.04982,-0.29988 -0.89984,-0.29988 -1.04982,-0.29987 -0.89984,-0.44982 -0.89984,-0.44982 -0.89985,-0.59976 -0.89984,-0.44981 -0.74987,-0.59976 -0.89984,-0.7497 -1.49974,-1.34945 -1.34977,-1.49939 -0.59989,-0.7497 -0.5999,-0.89964 -0.59989,-0.74969 -0.44993,-0.89964 -0.44992,-0.89963 -0.44992,-1.04958 -0.44992,-0.89963 -0.29995,-1.04958 -0.29995,-0.89964 -0.29994,-1.04957 -0.14998,-1.04958 -0.14997,-1.04957 0,-1.19952 0,-1.04957"
         style="fill:none;stroke:#4296bc;stroke-width:1.04981709px;stroke-linecap:round;stroke-linejoin:round;stroke-opacity:1;stroke-dasharray:none"
         inkscape:connector-curvature="0" />
      <path
         id="path3218"
         d="m 265.18456,848.8529 0,63.7242 127.47779,0 0,-63.7242 -127.47779,0 z"
         style="fill:#5dcdff;fill-opacity:1;fill-rule:evenodd;stroke:none"
         inkscape:connector-curvature="0" />
      <path
         id="path3220"
         d="m 265.18456,848.8529 127.47779,0 0,63.7242 -127.47779,0 z"
         style="fill:none;stroke:#4296bc;stroke-width:1.04981709px;stroke-linecap:round;stroke-linejoin:round;stroke-opacity:1;stroke-dasharray:none"
         inkscape:connector-curvature="0" />
      <text
         id="text3222"
         style="font-size:22.49608231px;font-style:normal;font-weight:normal;text-align:start;text-anchor:start;fill:#ffffff;font-family:Open Sans"
         y="874.94232"
         x="284.98111"
         xml:space="preserve">Provider </text>
      <text
         id="text3224"
         style="font-size:22.49608231px;font-style:normal;font-weight:normal;text-align:start;text-anchor:start;fill:#ffffff;font-family:Open Sans"
         y="901.9314"
         x="307.92709"
         xml:space="preserve">App</text>
      <path
         id="path3226"
         d="m 183.14885,880.04027 4.94913,0 0,1.19952 -4.94913,0 0,-1.19952 z m 8.69848,0 5.09911,0 0,1.19952 -5.09911,0 0,-1.19952 z m 8.84846,0 4.94914,0 0,1.19952 -4.94914,0 0,-1.19952 z m 8.69848,0 4.94914,0 0,1.19952 -4.94914,0 0,-1.19952 z m 8.69849,0 5.09911,0 0,1.19952 -5.09911,0 0,-1.19952 z m 8.84846,0 4.94914,0 0,1.19952 -4.94914,0 0,-1.19952 z m 8.69848,0 4.94914,0 0,1.19952 -4.94914,0 0,-1.19952 z m 8.69849,0 5.09911,0 0,1.19952 -5.09911,0 0,-1.19952 z m 8.84846,0 4.94913,0 0,1.19952 -4.94913,0 0,-1.19952 z m 8.69848,0 1.94966,0 0,1.19952 -1.94966,0 0,-1.19952 z m -5.09911,-4.34824 8.39854,4.948 -8.39854,4.948 -0.29995,0 -0.29995,0 -0.14997,0 -0.14997,-0.29988 -0.14998,-0.14994 0,-0.29988 0.14998,-0.14994 0.14997,-0.14994 7.49869,-4.34824 0,1.04958 -7.49869,-4.34824 -0.14997,-0.29988 -0.14998,-0.14994 0,-0.29988 0.14998,-0.14994 0.14997,-0.14994 0.14997,-0.14994 0.29995,0 0.29995,0 0,0 z"
         style="fill:#5dcdff;fill-opacity:1;fill-rule:nonzero;stroke:#5dcdff;stroke-width:0.14997387px;stroke-linecap:round;stroke-linejoin:round;stroke-opacity:1;stroke-dasharray:none"
         inkscape:connector-curvature="0" />
      <path
         id="path3228"
         d="m 435.25493,848.8529 0,63.7242 127.4778,0 0,-63.7242 -127.4778,0 z"
         style="fill:#5dcdff;fill-opacity:1;fill-rule:evenodd;stroke:none"
         inkscape:connector-curvature="0" />
      <path
         id="path3230"
         d="m 435.25493,848.8529 127.4778,0 0,63.7242 -127.4778,0 z"
         style="fill:none;stroke:#4296bc;stroke-width:1.04981709px;stroke-linecap:round;stroke-linejoin:round;stroke-opacity:1;stroke-dasharray:none"
         inkscape:connector-curvature="0" />
      <text
         id="text3232"
         style="font-size:22.49608231px;font-style:normal;font-weight:normal;text-align:start;text-anchor:start;fill:#ffffff;font-family:Open Sans"
         y="874.94232"
         x="455.05145"
         xml:space="preserve">Provider </text>
      <text
         id="text3234"
         style="font-size:22.49608231px;font-style:normal;font-weight:normal;text-align:start;text-anchor:start;fill:#ffffff;font-family:Open Sans"
         y="901.9314"
         x="460.90045"
         xml:space="preserve">System</text>
      <path
         id="path3236"
         d="m 148.50488,962.207 26.84533,0 6.74882,6.59733 0,78.41827 0,0 -40.34297,0 0,0 0,-78.41827 z"
         style="fill:#5dcdff;fill-opacity:1;fill-rule:evenodd;stroke:none"
         inkscape:connector-curvature="0" />
      <path
         id="path3238"
         d="m 148.50488,962.207 26.84533,0 6.74882,6.59733 0,78.41827 0,0 -40.34297,0 0,0 0,-78.41827 z"
         style="fill:none;stroke:#4296bc;stroke-width:1.04981709px;stroke-linecap:round;stroke-linejoin:round;stroke-opacity:1;stroke-dasharray:none"
         inkscape:connector-curvature="0" />
      <path
         id="path3240"
         d="m 435.25493,972.70275 0,63.87415 127.4778,0 0,-63.87415 -127.4778,0 z"
         style="fill:#5dcdff;fill-opacity:1;fill-rule:evenodd;stroke:none"
         inkscape:connector-curvature="0" />
      <path
         id="path3242"
         d="m 435.25493,972.70275 127.4778,0 0,63.87415 -127.4778,0 z"
         style="fill:none;stroke:#4296bc;stroke-width:1.04981709px;stroke-linecap:round;stroke-linejoin:round;stroke-opacity:1;stroke-dasharray:none"
         inkscape:connector-curvature="0" />
      <text
         id="text3244"
         style="font-size:22.49608231px;font-style:normal;font-weight:normal;text-align:start;text-anchor:start;fill:#ffffff;font-family:Open Sans"
         y="998.79218"
         x="451.00217"
         xml:space="preserve">Operator </text>
      <text
         id="text3246"
         style="font-size:22.49608231px;font-style:normal;font-weight:normal;text-align:start;text-anchor:start;fill:#ffffff;font-family:Open Sans"
         y="1025.7813"
         x="460.90045"
         xml:space="preserve">System</text>
      <path
         id="path3248"
         d="m 392.66235,880.04027 5.09911,0 0,1.19952 -5.09911,0 0,-1.19952 z m 8.84846,0 4.94914,0 0,1.19952 -4.94914,0 0,-1.19952 z m 8.69849,0 4.94913,0 0,1.19952 -4.94913,0 0,-1.19952 z m 8.69848,0 5.09911,0 0,1.19952 -5.09911,0 0,-1.19952 z m 8.84846,0 4.94914,0 0,1.19952 -4.94914,0 0,-1.19952 z m -0.89984,-4.34824 8.39853,4.948 -8.39853,4.948 -0.29995,0 -0.29995,0 -0.14997,0 -0.14998,-0.29988 -0.14997,-0.14994 0,-0.29988 0.14997,-0.14994 0.14998,-0.14994 7.49869,-4.34824 0,1.04958 -7.49869,-4.34824 -0.14998,-0.29988 -0.14997,-0.14994 0,-0.29988 0.14997,-0.14994 0.14998,-0.14994 0.14997,-0.14994 0.29995,0 0.29995,0 0,0 z"
         style="fill:#5dcdff;fill-opacity:1;fill-rule:nonzero;stroke:#5dcdff;stroke-width:0.14997387px;stroke-linecap:round;stroke-linejoin:round;stroke-opacity:1;stroke-dasharray:none"
         inkscape:connector-curvature="0" />
      <path
         id="path3250"
         d="m 500.3436,912.5771 0,57.42675 -2.69953,0 0,-57.42675 2.69953,0 z m 4.79916,49.6299 -6.14893,10.49575 -6.14893,-10.49575 -0.14997,-0.14994 0,-0.29988 0,-0.29987 0,-0.29988 0.14997,-0.29988 0.14998,-0.14994 0.14997,-0.14994 0.14997,-0.14994 0.29995,-0.14994 0.29995,-0.14994 0.29995,0 0.29994,0.14994 0.14998,0 0.29995,0.14994 0.14997,0.14994 0.14997,0.29988 4.94914,8.3966 -2.39958,0 4.94914,-8.3966 0.14997,-0.29988 0.14997,-0.14994 0.29995,-0.14994 0.14998,0 0.29994,-0.14994 0.29995,0 0.29995,0.14994 0.14997,0.14994 0.29995,0.14994 0.14998,0.14994 0.14997,0.14994 0.14997,0.29988 0,0.29988 0,0.29987 0,0.29988 -0.14997,0.14994 0,0 z"
         style="fill:#5dcdff;fill-opacity:1;fill-rule:nonzero;stroke:#5dcdff;stroke-width:0.14997387px;stroke-linecap:round;stroke-linejoin:round;stroke-opacity:1;stroke-dasharray:none"
         inkscape:connector-curvature="0" />
      <path
         id="path3252"
         d="m 435.25493,1004.0401 -5.09911,0 0,1.1995 5.09911,0 0,-1.1995 z m -8.84846,0 -4.94913,0 0,1.1995 4.94913,0 0,-1.1995 z m -8.69848,0 -4.94914,0 0,1.1995 4.94914,0 0,-1.1995 z m -8.69849,0 -5.09911,0 0,1.1995 5.09911,0 0,-1.1995 z m -8.84845,0 -4.94914,0 0,1.1995 4.94914,0 0,-1.1995 z m -8.69849,0 -4.94914,0 0,1.1995 4.94914,0 0,-1.1995 z m -8.69848,0 -5.09912,0 0,1.1995 5.09912,0 0,-1.1995 z m -8.84846,0 -4.94914,0 0,1.1995 4.94914,0 0,-1.1995 z m -8.69849,0 -4.94914,0 0,1.1995 4.94914,0 0,-1.1995 z m -8.69848,0 -5.09911,0 0,1.1995 5.09911,0 0,-1.1995 z m -8.84846,0 -4.94914,0 0,1.1995 4.94914,0 0,-1.1995 z m -8.69849,0 -4.94913,0 0,1.1995 4.94913,0 0,-1.1995 z m -8.69848,0 -5.09911,0 0,1.1995 5.09911,0 0,-1.1995 z m -8.84846,0 -4.94914,0 0,1.1995 4.94914,0 0,-1.1995 z m -8.69848,0 -4.94914,0 0,1.1995 4.94914,0 0,-1.1995 z m -8.69849,0 -5.09911,0 0,1.1995 5.09911,0 0,-1.1995 z m -8.84846,0 -4.94914,0 0,1.1995 4.94914,0 0,-1.1995 z m -8.69848,0 -4.94914,0 0,1.1995 4.94914,0 0,-1.1995 z m -8.69849,0 -5.09911,0 0,1.1995 5.09911,0 0,-1.1995 z m -8.84846,0 -4.94913,0 0,1.1995 4.94913,0 0,-1.1995 z m -8.69848,0 -4.94914,0 0,1.1995 4.94914,0 0,-1.1995 z m -8.69849,0 -5.09911,0 0,1.1995 5.09911,0 0,-1.1995 z m -8.84845,0 -4.94914,0 0,1.1995 4.94914,0 0,-1.1995 z m -8.69849,0 -4.94914,0 0,1.1995 4.94914,0 0,-1.1995 z m -8.69848,0 -5.09912,0 0,1.1995 5.09912,0 0,-1.1995 z m -8.84846,0 -4.94914,0 0,1.1995 4.94914,0 0,-1.1995 z m -8.69849,0 -4.94914,0 0,1.1995 4.94914,0 0,-1.1995 z m -8.69848,0 -5.09911,0 0,1.1995 5.09911,0 0,-1.1995 z m -8.84846,0 -4.94914,0 0,1.1995 4.94914,0 0,-1.1995 z m 0.29995,-4.34828 -8.39854,4.94798 8.39854,4.948 0.14997,0 0.29995,0 0.29995,0 0.14997,-0.2999 0,-0.1499 0,-0.2999 -0.14997,-0.1499 -0.14998,-0.15 -7.49869,-4.4981 0,1.1995 7.49869,-4.4982 0.14998,-0.1499 0.14997,-0.15 0,-0.2999 0,-0.1499 -0.14997,-0.14994 -0.29995,-0.14994 -0.29995,0 -0.14997,0 0,0 z"
         style="fill:#5dcdff;fill-opacity:1;fill-rule:nonzero;stroke:#5dcdff;stroke-width:0.14997387px;stroke-linecap:round;stroke-linejoin:round;stroke-opacity:1;stroke-dasharray:none"
         inkscape:connector-curvature="0" />
      <text
         id="text3254"
         style="font-size:17.54694366px;font-style:normal;font-weight:normal;text-align:start;text-anchor:start;fill:#000000;font-family:Open Sans"
         y="924.57227"
         x="143.70572"
         xml:space="preserve">user</text>
      <text
         id="text3256"
         style="font-size:17.54694366px;font-style:normal;font-weight:normal;text-align:start;text-anchor:start;fill:#000000;font-family:Open Sans"
         y="1068.2141"
         x="134.10739"
         xml:space="preserve">charge</text>
      <text
         id="text3258"
         style="font-size:17.54694366px;font-style:normal;font-weight:normal;text-align:start;text-anchor:start;fill:#000000;font-family:Open Sans"
         y="1089.2056"
         x="140.4063"
         xml:space="preserve">point</text>
      <path
         id="path3260"
         d="m 144.45559,988.29644 0,-0.59976 0.14997,-0.74969 0.14997,-0.7497 0.29995,-0.59976 0.29995,-0.59976 0.29995,-0.59975 0.44992,-0.59976 0.44992,-0.44982 0.44992,-0.44982 0.5999,-0.44981 0.59989,-0.29988 0.5999,-0.29988 0.59989,-0.29988 0.74987,-0.14994 0.5999,-0.14994 0.74987,0 0.74987,0 0.74987,0.14994 0.59989,0.14994 0.74987,0.29988 0.5999,0.29988 0.59989,0.29988 0.44992,0.44981 0.5999,0.44982 0.44992,0.44982 0.29995,0.59976 0.44992,0.59975 0.29995,0.59976 0.14997,0.59976 0.14998,0.7497 0.14997,0.74969 0,0.59976 0,0.7497 -0.14997,0.74969 -0.14998,0.59976 -0.14997,0.7497 -0.29995,0.59975 -0.44992,0.59976 -0.29995,0.44982 -0.44992,0.59975 -0.5999,0.44982 -0.44992,0.44982 -0.59989,0.29988 -0.5999,0.29988 -0.74987,0.29988 -0.59989,0.14994 -0.74987,0 -0.74987,0.14993 -0.74987,-0.14993 -0.5999,0 -0.74987,-0.14994 -0.59989,-0.29988 -0.5999,-0.29988 -0.59989,-0.29988 -0.5999,-0.44982 -0.44992,-0.44982 -0.44992,-0.59975 -0.44992,-0.44982 -0.29995,-0.59976 -0.29995,-0.59975 -0.29995,-0.7497 -0.14997,-0.59976 -0.14997,-0.74969 0,-0.7497 z"
         style="fill:#5dcdff;fill-opacity:1;fill-rule:evenodd;stroke:none"
         inkscape:connector-curvature="0" />
      <path
         id="path3262"
         d="m 144.45559,988.29644 0,-0.59976 0.14997,-0.74969 0.14997,-0.7497 0.29995,-0.59976 0.29995,-0.59976 0.29995,-0.59975 0.44992,-0.59976 0.44992,-0.44982 0.44992,-0.44982 0.5999,-0.44981 0.59989,-0.29988 0.5999,-0.29988 0.59989,-0.29988 0.74987,-0.14994 0.5999,-0.14994 0.74987,0 0.74987,0 0.74987,0.14994 0.59989,0.14994 0.74987,0.29988 0.5999,0.29988 0.59989,0.29988 0.44992,0.44981 0.5999,0.44982 0.44992,0.44982 0.29995,0.59976 0.44992,0.59975 0.29995,0.59976 0.14997,0.59976 0.14998,0.7497 0.14997,0.74969 0,0.59976 0,0.7497 -0.14997,0.74969 -0.14998,0.59976 -0.14997,0.7497 -0.29995,0.59975 -0.44992,0.59976 -0.29995,0.44982 -0.44992,0.59975 -0.5999,0.44982 -0.44992,0.44982 -0.59989,0.29988 -0.5999,0.29988 -0.74987,0.29988 -0.59989,0.14994 -0.74987,0 -0.74987,0.14993 -0.74987,-0.14993 -0.5999,0 -0.74987,-0.14994 -0.59989,-0.29988 -0.5999,-0.29988 -0.59989,-0.29988 -0.5999,-0.44982 -0.44992,-0.44982 -0.44992,-0.59975 -0.44992,-0.44982 -0.29995,-0.59976 -0.29995,-0.59975 -0.29995,-0.7497 -0.14997,-0.59976 -0.14997,-0.74969 0,-0.7497"
         style="fill:none;stroke:#4296bc;stroke-width:1.04981709px;stroke-linecap:round;stroke-linejoin:round;stroke-opacity:1;stroke-dasharray:none"
         inkscape:connector-curvature="0" />
      <path
         id="path3264"
         d="m 165.75188,988.29644 0,-0.59976 0,-0.74969 0.29994,-0.7497 0.14998,-0.59976 0.29995,-0.59976 0.44992,-0.59975 0.29995,-0.59976 0.44992,-0.44982 0.59989,-0.44982 0.44992,-0.44981 0.5999,-0.29988 0.59989,-0.29988 0.74987,-0.29988 0.5999,-0.14994 0.74987,-0.14994 0.74987,0 0.74987,0 0.59989,0.14994 0.74987,0.14994 0.5999,0.29988 0.59989,0.29988 0.5999,0.29988 0.59989,0.44981 0.44993,0.44982 0.44992,0.44982 0.44992,0.59976 0.29995,0.59975 0.29995,0.59976 0.29994,0.59976 0.14998,0.7497 0.14997,0.74969 0,0.59976 0,0.7497 -0.14997,0.74969 -0.14998,0.59976 -0.29994,0.7497 -0.29995,0.59975 -0.29995,0.59976 -0.44992,0.44982 -0.44992,0.59975 -0.44993,0.44982 -0.59989,0.44982 -0.5999,0.29988 -0.59989,0.29988 -0.5999,0.29988 -0.74987,0.14994 -0.59989,0 -0.74987,0.14993 -0.74987,-0.14993 -0.74987,0 -0.5999,-0.14994 -0.74987,-0.29988 -0.59989,-0.29988 -0.5999,-0.29988 -0.44992,-0.44982 -0.59989,-0.44982 -0.44992,-0.59975 -0.29995,-0.44982 -0.44992,-0.59976 -0.29995,-0.59975 -0.14998,-0.7497 -0.29994,-0.59976 0,-0.74969 0,-0.7497 z"
         style="fill:#5dcdff;fill-opacity:1;fill-rule:evenodd;stroke:none"
         inkscape:connector-curvature="0" />
      <path
         id="path3266"
         d="m 165.75188,988.29644 0,-0.59976 0,-0.74969 0.29994,-0.7497 0.14998,-0.59976 0.29995,-0.59976 0.44992,-0.59975 0.29995,-0.59976 0.44992,-0.44982 0.59989,-0.44982 0.44992,-0.44981 0.5999,-0.29988 0.59989,-0.29988 0.74987,-0.29988 0.5999,-0.14994 0.74987,-0.14994 0.74987,0 0.74987,0 0.59989,0.14994 0.74987,0.14994 0.5999,0.29988 0.59989,0.29988 0.5999,0.29988 0.59989,0.44981 0.44993,0.44982 0.44992,0.44982 0.44992,0.59976 0.29995,0.59975 0.29995,0.59976 0.29994,0.59976 0.14998,0.7497 0.14997,0.74969 0,0.59976 0,0.7497 -0.14997,0.74969 -0.14998,0.59976 -0.29994,0.7497 -0.29995,0.59975 -0.29995,0.59976 -0.44992,0.44982 -0.44992,0.59975 -0.44993,0.44982 -0.59989,0.44982 -0.5999,0.29988 -0.59989,0.29988 -0.5999,0.29988 -0.74987,0.14994 -0.59989,0 -0.74987,0.14993 -0.74987,-0.14993 -0.74987,0 -0.5999,-0.14994 -0.74987,-0.29988 -0.59989,-0.29988 -0.5999,-0.29988 -0.44992,-0.44982 -0.59989,-0.44982 -0.44992,-0.59975 -0.29995,-0.44982 -0.44992,-0.59976 -0.29995,-0.59975 -0.14998,-0.7497 -0.29994,-0.59976 0,-0.74969 0,-0.7497"
         style="fill:none;stroke:#4296bc;stroke-width:1.04981709px;stroke-linecap:round;stroke-linejoin:round;stroke-opacity:1;stroke-dasharray:none"
         inkscape:connector-curvature="0" />
      <path
         id="path3268"
         d="m 620.3227,904.93019 0,63.7242 127.62776,0 0,-63.7242 -127.62776,0 z"
         style="fill:#5dcdff;fill-opacity:1;fill-rule:evenodd;stroke:none"
         inkscape:connector-curvature="0" />
      <path
         id="path3270"
         d="m 620.3227,904.93019 127.62776,0 0,63.7242 -127.62776,0 z"
         style="fill:none;stroke:#4296bc;stroke-width:1.04981709px;stroke-linecap:round;stroke-linejoin:round;stroke-opacity:1;stroke-dasharray:none"
         inkscape:connector-curvature="0" />
      <text
         id="text3272"
         style="font-size:22.49608231px;font-style:normal;font-weight:normal;text-align:start;text-anchor:start;fill:#ffffff;font-family:Open Sans"
         y="930.86969"
         x="641.16907"
         xml:space="preserve">Clearing </text>
      <text
         id="text3274"
         style="font-size:22.49608231px;font-style:normal;font-weight:normal;text-align:start;text-anchor:start;fill:#ffffff;font-family:Open Sans"
         y="957.85876"
         x="650.46741"
         xml:space="preserve">House</text>
      <path
         id="path3276"
         d="m 564.08249,880.78997 55.64031,37.63476 -0.74987,1.04958 -55.49033,-37.63477 0.59989,-1.04957 z m 2.84951,8.69648 -4.19927,-8.84642 9.7483,0.7497 0.29995,0 0.14997,0.14994 0.14998,0.14993 0,0.29988 0,0.29988 -0.14998,0.14994 -0.29995,0.14994 -0.14997,0 0,0 -8.69849,-0.59976 0.5999,-0.89963 3.74935,7.79684 0,0.29988 0,0.14994 -0.14998,0.29988 -0.14997,0.14994 -0.29995,0 -0.14997,0 -0.29995,-0.14994 -0.14997,-0.14994 0,0 z m 49.19143,21.44132 4.19927,8.69647 -9.59833,-0.59975 -0.29995,-0.14994 -0.14997,-0.14994 -0.14998,-0.14994 0,-0.29988 0,-0.14994 0.14998,-0.29988 0.14997,0 0.29995,0 8.69848,0.44982 -0.59989,0.89964 -3.74935,-7.79685 -0.14997,-0.29987 0.14997,-0.14994 0,-0.14994 0.29995,-0.14994 0.14997,-0.14994 0.29995,0 0.14997,0.14994 0.14998,0.29988 0,0 z"
         style="fill:#5dcdff;fill-opacity:1;fill-rule:nonzero;stroke:#5dcdff;stroke-width:0.14997387px;stroke-linecap:round;stroke-linejoin:round;stroke-opacity:1;stroke-dasharray:none"
         inkscape:connector-curvature="0" />
      <path
         id="path3278"
         d="m 618.97293,951.1115 -55.49033,37.63476 0.59989,1.04957 55.64031,-37.63476 -0.74987,-1.04957 z m -2.8495,8.69647 4.19927,-8.84641 -9.59833,0.59975 -0.29995,0.14994 -0.14997,0.14994 -0.14998,0.14994 0,0.29988 0,0.14994 0.14998,0.29988 0.14997,0 0.29995,0.14994 8.69848,-0.59976 -0.59989,-0.89964 -3.74935,7.79685 -0.14997,0.14994 0.14997,0.29987 0,0.29988 0.29995,0.14994 0.14997,0 0.29995,0 0.14997,-0.14994 0.14998,-0.14994 0,0 z m -49.19143,21.29138 -4.19927,8.84642 9.7483,-0.59976 0.29995,-0.14994 0.14997,-0.14993 0.14998,-0.14994 0,-0.29988 0,-0.29988 -0.14998,-0.14994 -0.29995,-0.14994 -0.14997,0 -8.69849,0.59976 0.5999,0.89963 3.74935,-7.79684 0,-0.29988 0,-0.14994 -0.14998,-0.29988 -0.14997,-0.14994 -0.29995,0 -0.14997,0 -0.29995,0.14994 -0.14997,0.14994 0,0 z"
         style="fill:#5dcdff;fill-opacity:1;fill-rule:nonzero;stroke:#5dcdff;stroke-width:0.14997387px;stroke-linecap:round;stroke-linejoin:round;stroke-opacity:1;stroke-dasharray:none"
         inkscape:connector-curvature="0" />
      <path
         id="path3280"
         d="m 618.67298,1005.6894 0,99.2598 220.16165,0 0,-99.2598 -220.16165,0 z"
         style="fill:#ffffff;fill-opacity:1;fill-rule:evenodd;stroke:none"
         inkscape:connector-curvature="0" />
      <path
         id="path3282"
         d="m 618.67298,1005.6894 220.16165,0 0,99.2598 -220.16165,0 z"
         style="fill:none;stroke:#aaaaaf;stroke-width:1.04981709px;stroke-linecap:round;stroke-linejoin:round;stroke-opacity:1;stroke-dasharray:none"
         inkscape:connector-curvature="0" />
      <path
         id="path3284"
         d="m 630.52092,1026.381 4.94914,0 0,1.1995 -4.94914,0 0,-1.1995 z m 8.69848,0 5.09912,0 0,1.1995 -5.09912,0 0,-1.1995 z m 8.84846,0 4.94914,0 0,1.1995 -4.94914,0 0,-1.1995 z m 8.69849,0 4.94914,0 0,1.1995 -4.94914,0 0,-1.1995 z m 8.69848,0 5.09911,0 0,1.1995 -5.09911,0 0,-1.1995 z m 8.84846,0 4.94914,0 0,1.1995 -4.94914,0 0,-1.1995 z m 8.69849,0 4.94913,0 0,1.1995 -4.94913,0 0,-1.1995 z m 8.69848,0 5.09911,0 0,1.1995 -5.09911,0 0,-1.1995 z m 8.84846,0 4.94914,0 0,1.1995 -4.94914,0 0,-1.1995 z m 8.69848,0 0.74987,0 0,1.1995 -0.74987,0 0,-1.1995 z m -71.53753,5.5478 -8.39854,-4.948 8.39854,-4.948 0.29994,0 0.14998,0 0.29995,0.1499 0.14997,0.15 0,0.1499 0,0.2999 -0.14997,0.1499 -0.14998,0.2999 -7.49869,4.3482 0,-1.0495 7.49869,4.3482 0.14998,0.1499 0.14997,0.15 0,0.2999 0,0.1499 -0.14997,0.2999 -0.29995,0 -0.14998,0 -0.29994,0 0,0 z m 65.08866,-9.896 8.54851,4.948 -8.54851,4.948 -0.14998,0 -0.29994,0 -0.14998,0 -0.14997,-0.2999 -0.14998,-0.1499 0,-0.2999 0.14998,-0.15 0.14997,-0.1499 7.4987,-4.3482 0,1.0495 -7.4987,-4.3482 -0.14997,-0.2999 -0.14998,-0.1499 0,-0.2999 0.14998,-0.1499 0.14997,-0.15 0.14998,-0.1499 0.29994,0 0.14998,0 0,0 z"
         style="fill:#5dcdff;fill-opacity:1;fill-rule:nonzero;stroke:#5dcdff;stroke-width:0.14997387px;stroke-linecap:round;stroke-linejoin:round;stroke-opacity:1;stroke-dasharray:none"
         inkscape:connector-curvature="0" />
      <path
         id="path3286"
         d="m 630.52092,1054.7195 79.48615,0 0,1.1996 -79.48615,0 0,-1.1996 z m 7.19875,5.5478 -8.39854,-4.948 8.39854,-4.948 0.29994,0 0.14998,0 0.29995,0.1499 0.14997,0.15 0,0.1499 0,0.2999 -0.14997,0.1499 -0.14998,0.2999 -7.49869,4.3483 0,-1.0496 7.49869,4.3482 0.14998,0.15 0.14997,0.1499 0,0.2999 0,0.1499 -0.14997,0.2999 -0.29995,0 -0.14998,0 -0.29994,0 0,0 z m 65.08866,-9.896 8.54851,4.948 -8.54851,4.948 -0.14998,0 -0.29994,0 -0.14998,0 -0.14997,-0.2999 -0.14998,-0.1499 0,-0.2999 0.14998,-0.1499 0.14997,-0.15 7.4987,-4.3482 0,1.0496 -7.4987,-4.3483 -0.14997,-0.2999 -0.14998,-0.1499 0,-0.2999 0.14998,-0.1499 0.14997,-0.15 0.14998,-0.1499 0.29994,0 0.14998,0 0,0 z"
         style="fill:#5dcdff;fill-opacity:1;fill-rule:nonzero;stroke:#5dcdff;stroke-width:0.14997387px;stroke-linecap:round;stroke-linejoin:round;stroke-opacity:1;stroke-dasharray:none"
         inkscape:connector-curvature="0" />
      <path
         id="path3288"
         d="m 632.02066,1082.3084 76.48668,0 0,2.8488 -76.48668,0 0,-2.8488 z m 7.79864,7.4969 -10.49817,-6.1475 10.49817,-6.1475 0.29995,-0.1499 0.14997,0 0.29995,0 0.29995,0 0.29994,0.1499 0.14998,0.15 0.29995,0.1499 0.14997,0.2999 0.14997,0.1499 0,0.2999 0,0.2999 0,0.2999 -0.14997,0.1499 -0.14997,0.2999 -0.14998,0.1499 -0.29995,0.1499 -8.39853,4.948 0,-2.399 8.39853,4.948 0.29995,0.15 0.14998,0.1499 0.14997,0.2999 0.14997,0.1499 0,0.2999 0,0.2999 0,0.2998 -0.14997,0.2999 -0.14997,0.15 -0.29995,0.1499 -0.14998,0.1499 -0.29994,0.15 -0.29995,0 -0.29995,0 -0.14997,0 -0.29995,-0.15 0,0 z m 60.88939,-12.295 10.64815,6.1475 -10.64815,6.1475 -0.14997,0.15 -0.29995,0 -0.29995,0 -0.29994,0 -0.29995,-0.15 -0.14997,-0.1499 -0.14998,-0.1499 -0.14997,-0.15 -0.14998,-0.2999 -0.14997,-0.2998 0,-0.2999 0.14997,-0.2999 0,-0.1499 0.14998,-0.2999 0.14997,-0.1499 0.29995,-0.15 0,0 8.39854,-4.948 0,2.399 -8.39854,-4.948 -0.29995,-0.1499 -0.14997,-0.1499 -0.14998,-0.2999 0,-0.1499 -0.14997,-0.2999 0,-0.2999 0.14997,-0.2999 0.14998,-0.1499 0.14997,-0.2999 0.14998,-0.1499 0.14997,-0.15 0.29995,-0.1499 0.29994,0 0.29995,0 0.29995,0 0.14997,0.1499 0,0 z"
         style="fill:#5dcdff;fill-opacity:1;fill-rule:nonzero;stroke:#5dcdff;stroke-width:0.14997387px;stroke-linecap:round;stroke-linejoin:round;stroke-opacity:1;stroke-dasharray:none"
         inkscape:connector-curvature="0" />
      <text
         id="text3290"
         style="font-size:13.19770145px;font-style:normal;font-weight:normal;text-align:start;text-anchor:start;fill:#888b8f;font-family:Open Sans"
         y="1028.6301"
         x="731.00342"
         xml:space="preserve">other protocol</text>
      <text
         id="text3294"
         style="font-size:13.19770145px;font-style:normal;font-weight:normal;text-align:start;text-anchor:start;fill:#888b8f;font-family:Open Sans"
         y="1059.6676"
         x="731.00342"
         xml:space="preserve">OCHP</text>
      <text
         id="text3296"
         style="font-size:13.19770145px;font-style:normal;font-weight:normal;text-align:start;text-anchor:start;fill:#888b8f;font-family:Open Sans"
         y="1088.0061"
         x="731.00342"
         xml:space="preserve">OCHP direct </text>
    </g>
  </g>
</svg>
